<svg width="84" height="51" viewBox="0 0 84 51" fill="none" xmlns="http://www.w3.org/2000/svg">
<g filter="url(#filter0_d)">
<path d="M16.4022 12.8306H16.3995C14.1372 12.8306 12.3032 14.6177 12.3032 16.8223V16.8249C12.3032 19.0295 14.1372 20.8167 16.3995 20.8167H16.4022C18.6645 20.8167 20.4985 19.0295 20.4985 16.8249V16.8223C20.4985 14.6177 18.6645 12.8306 16.4022 12.8306Z" fill="#2196F3"/>
<path d="M46.6368 11.5545C46.6304 8.49242 45.3795 5.55752 43.1579 3.39207C40.9363 1.22661 37.925 0.00695286 34.7828 0V0C31.6397 0.00556265 28.6269 1.22461 26.4041 3.39022C24.1814 5.55582 22.9298 8.49151 22.9233 11.5545V28.4402C22.9233 28.4402 46.6341 25.8667 46.6368 11.5571V11.5545Z" fill="#2196F3"/>
<path d="M4 33.9823C4.0057 36.1129 4.87656 38.1547 6.42228 39.6615C7.96799 41.1683 10.0629 42.0177 12.2492 42.0239C14.4351 42.0177 16.5296 41.1687 18.0752 39.6625C19.6209 38.1562 20.492 36.1151 20.4985 33.9849V22.2356C20.4985 22.2356 4 24.0276 4 33.9823ZM12.2492 36.0874C11.822 36.0874 11.4043 35.964 11.0491 35.7326C10.6938 35.5013 10.417 35.1726 10.2535 34.7879C10.09 34.4032 10.0472 33.98 10.1305 33.5716C10.2139 33.1632 10.4196 32.7881 10.7217 32.4937C11.0239 32.1993 11.4088 31.9988 11.8278 31.9176C12.2468 31.8364 12.6812 31.8781 13.0759 32.0374C13.4706 32.1967 13.808 32.4665 14.0454 32.8127C14.2827 33.1589 14.4094 33.5659 14.4094 33.9823C14.4105 34.2594 14.3554 34.534 14.2473 34.7903C14.1392 35.0466 13.9803 35.2796 13.7796 35.476C13.5789 35.6723 13.3404 35.828 13.0778 35.9343C12.8152 36.0406 12.5336 36.0953 12.2492 36.0953V36.0874Z" fill="#2196F3"/>
<path d="M29.0894 34.7812H27.4019V36.5244H26.5229V32.2588H29.3003V32.9707H27.4019V34.0723H29.0894V34.7812ZM33.314 34.4883C33.314 34.9082 33.2397 35.2764 33.0913 35.5928C32.9429 35.9092 32.73 36.1533 32.4526 36.3252C32.1772 36.4971 31.8608 36.583 31.5034 36.583C31.1499 36.583 30.8345 36.498 30.5571 36.3281C30.2798 36.1582 30.0649 35.916 29.9126 35.6016C29.7603 35.2852 29.6831 34.9219 29.6812 34.5117V34.3008C29.6812 33.8809 29.7563 33.5117 29.9067 33.1934C30.0591 32.873 30.2729 32.6279 30.5483 32.458C30.8257 32.2861 31.1421 32.2002 31.4976 32.2002C31.853 32.2002 32.1685 32.2861 32.4438 32.458C32.7212 32.6279 32.9351 32.873 33.0854 33.1934C33.2378 33.5117 33.314 33.8799 33.314 34.2979V34.4883ZM32.4233 34.2949C32.4233 33.8477 32.3433 33.5078 32.1831 33.2754C32.0229 33.043 31.7944 32.9268 31.4976 32.9268C31.2026 32.9268 30.9751 33.042 30.8149 33.2725C30.6548 33.501 30.5737 33.8369 30.5718 34.2803V34.4883C30.5718 34.9238 30.6519 35.2617 30.812 35.502C30.9722 35.7422 31.2026 35.8623 31.5034 35.8623C31.7983 35.8623 32.0249 35.7471 32.1831 35.5166C32.3413 35.2842 32.4214 34.9463 32.4233 34.5029V34.2949ZM36.1646 35.4053C36.1646 35.2393 36.106 35.1123 35.9888 35.0244C35.8716 34.9346 35.6606 34.8408 35.356 34.7432C35.0513 34.6436 34.8101 34.5459 34.6323 34.4502C34.1479 34.1885 33.9058 33.8359 33.9058 33.3926C33.9058 33.1621 33.9702 32.957 34.0991 32.7773C34.23 32.5957 34.4165 32.4541 34.6587 32.3525C34.9028 32.251 35.1763 32.2002 35.479 32.2002C35.7837 32.2002 36.0552 32.2559 36.2935 32.3672C36.5317 32.4766 36.7163 32.6318 36.8472 32.833C36.98 33.0342 37.0464 33.2627 37.0464 33.5186H36.1675C36.1675 33.3232 36.106 33.1719 35.9829 33.0645C35.8599 32.9551 35.687 32.9004 35.4644 32.9004C35.2495 32.9004 35.0825 32.9463 34.9634 33.0381C34.8442 33.1279 34.7847 33.2471 34.7847 33.3955C34.7847 33.5342 34.854 33.6504 34.9927 33.7441C35.1333 33.8379 35.3394 33.9258 35.6108 34.0078C36.1108 34.1582 36.4751 34.3447 36.7036 34.5674C36.9321 34.79 37.0464 35.0674 37.0464 35.3994C37.0464 35.7686 36.9067 36.0586 36.6274 36.2695C36.3481 36.4785 35.9722 36.583 35.4995 36.583C35.1714 36.583 34.8726 36.5234 34.603 36.4043C34.3335 36.2832 34.1274 36.1182 33.9849 35.9092C33.8442 35.7002 33.7739 35.458 33.7739 35.1826H34.6558C34.6558 35.6533 34.937 35.8887 35.4995 35.8887C35.7085 35.8887 35.8716 35.8467 35.9888 35.7627C36.106 35.6768 36.1646 35.5576 36.1646 35.4053ZM40.855 32.9707H39.5483V36.5244H38.6694V32.9707H37.3804V32.2588H40.855V32.9707ZM43.9253 34.6758H42.2378V35.8184H44.2183V36.5244H41.3589V32.2588H44.2124V32.9707H42.2378V33.9873H43.9253V34.6758ZM46.313 34.9629H45.6128V36.5244H44.7339V32.2588H46.3188C46.8228 32.2588 47.2114 32.3711 47.4849 32.5957C47.7583 32.8203 47.895 33.1377 47.895 33.5479C47.895 33.8389 47.8315 34.082 47.7046 34.2773C47.5796 34.4707 47.3892 34.625 47.1333 34.7402L48.0562 36.4834V36.5244H47.1128L46.313 34.9629ZM45.6128 34.251H46.3218C46.5425 34.251 46.7134 34.1953 46.8345 34.084C46.9556 33.9707 47.0161 33.8154 47.0161 33.6182C47.0161 33.417 46.9585 33.2588 46.8433 33.1436C46.73 33.0283 46.5552 32.9707 46.3188 32.9707H45.6128V34.251ZM50.939 35.0215V36.5244H50.0601V32.2588H51.7241C52.0444 32.2588 52.3257 32.3174 52.5679 32.4346C52.812 32.5518 52.9995 32.7188 53.1304 32.9355C53.2612 33.1504 53.3267 33.3955 53.3267 33.6709C53.3267 34.0889 53.1831 34.4189 52.896 34.6611C52.6108 34.9014 52.2153 35.0215 51.7095 35.0215H50.939ZM50.939 34.3096H51.7241C51.9565 34.3096 52.1333 34.2549 52.2544 34.1455C52.3774 34.0361 52.439 33.8799 52.439 33.6768C52.439 33.4678 52.3774 33.2988 52.2544 33.1699C52.1313 33.041 51.9614 32.9746 51.7446 32.9707H50.939V34.3096ZM56.4995 34.6758H54.812V35.8184H56.7925V36.5244H53.9331V32.2588H56.7866V32.9707H54.812V33.9873H56.4995V34.6758ZM60.5776 32.9707H59.271V36.5244H58.3921V32.9707H57.103V32.2588H60.5776V32.9707ZM63.6479 34.6758H61.9604V35.8184H63.9409V36.5244H61.0815V32.2588H63.9351V32.9707H61.9604V33.9873H63.6479V34.6758ZM66.0356 34.9629H65.3354V36.5244H64.4565V32.2588H66.0415C66.5454 32.2588 66.9341 32.3711 67.2075 32.5957C67.481 32.8203 67.6177 33.1377 67.6177 33.5479C67.6177 33.8389 67.5542 34.082 67.4272 34.2773C67.3022 34.4707 67.1118 34.625 66.856 34.7402L67.7788 36.4834V36.5244H66.8354L66.0356 34.9629ZM65.3354 34.251H66.0444C66.2651 34.251 66.436 34.1953 66.5571 34.084C66.6782 33.9707 66.7388 33.8154 66.7388 33.6182C66.7388 33.417 66.6812 33.2588 66.5659 33.1436C66.4526 33.0283 66.2778 32.9707 66.0415 32.9707H65.3354V34.251ZM70.5005 35.4053C70.5005 35.2393 70.4419 35.1123 70.3247 35.0244C70.2075 34.9346 69.9966 34.8408 69.6919 34.7432C69.3872 34.6436 69.146 34.5459 68.9683 34.4502C68.4839 34.1885 68.2417 33.8359 68.2417 33.3926C68.2417 33.1621 68.3062 32.957 68.4351 32.7773C68.5659 32.5957 68.7524 32.4541 68.9946 32.3525C69.2388 32.251 69.5122 32.2002 69.8149 32.2002C70.1196 32.2002 70.3911 32.2559 70.6294 32.3672C70.8677 32.4766 71.0522 32.6318 71.1831 32.833C71.3159 33.0342 71.3823 33.2627 71.3823 33.5186H70.5034C70.5034 33.3232 70.4419 33.1719 70.3188 33.0645C70.1958 32.9551 70.0229 32.9004 69.8003 32.9004C69.5854 32.9004 69.4185 32.9463 69.2993 33.0381C69.1802 33.1279 69.1206 33.2471 69.1206 33.3955C69.1206 33.5342 69.1899 33.6504 69.3286 33.7441C69.4692 33.8379 69.6753 33.9258 69.9468 34.0078C70.4468 34.1582 70.811 34.3447 71.0396 34.5674C71.2681 34.79 71.3823 35.0674 71.3823 35.3994C71.3823 35.7686 71.2427 36.0586 70.9634 36.2695C70.6841 36.4785 70.3081 36.583 69.8354 36.583C69.5073 36.583 69.2085 36.5234 68.939 36.4043C68.6694 36.2832 68.4634 36.1182 68.3208 35.9092C68.1802 35.7002 68.1099 35.458 68.1099 35.1826H68.9917C68.9917 35.6533 69.2729 35.8887 69.8354 35.8887C70.0444 35.8887 70.2075 35.8467 70.3247 35.7627C70.4419 35.6768 70.5005 35.5576 70.5005 35.4053Z" fill="#2196F3"/>
</g>
<defs>
<filter id="filter0_d" x="0" y="0" width="75.3823" height="50.0239" filterUnits="userSpaceOnUse" color-interpolation-filters="sRGB">
<feFlood flood-opacity="0" result="BackgroundImageFix"/>
<feColorMatrix in="SourceAlpha" type="matrix" values="0 0 0 0 0 0 0 0 0 0 0 0 0 0 0 0 0 0 127 0"/>
<feOffset dy="4"/>
<feGaussianBlur stdDeviation="2"/>
<feColorMatrix type="matrix" values="0 0 0 0 0 0 0 0 0 0 0 0 0 0 0 0 0 0 0.25 0"/>
<feBlend mode="normal" in2="BackgroundImageFix" result="effect1_dropShadow"/>
<feBlend mode="normal" in="SourceGraphic" in2="effect1_dropShadow" result="shape"/>
</filter>
</defs>
</svg>
