<svg width="49" height="51" viewBox="0 0 49 51" fill="none" xmlns="http://www.w3.org/2000/svg">
<g filter="url(#filter0_d)">
<path d="M10.3457 41.7946C10.3607 41.795 10.3755 41.7982 10.3891 41.8041C10.4028 41.81 10.4152 41.8184 10.4254 41.8289L10.6312 42.0446C10.4714 42.2191 10.274 42.3588 10.0524 42.4539C9.79293 42.5577 9.51326 42.6078 9.23192 42.6009C8.96755 42.6061 8.70488 42.5594 8.46028 42.4637C8.23964 42.3758 8.04139 42.2437 7.87898 42.0764C7.71321 41.9029 7.58553 41.6996 7.50344 41.4784C7.41355 41.2318 7.36916 40.9723 7.37226 40.7113C7.36861 40.4486 7.4166 40.1875 7.51373 39.9417C7.60359 39.7191 7.73912 39.5158 7.91241 39.3436C8.08805 39.1749 8.29815 39.0423 8.52973 38.9539C8.78306 38.8604 9.05283 38.8138 9.32452 38.8167C9.57689 38.8108 9.82792 38.8534 10.0627 38.9417C10.2664 39.0259 10.4535 39.1428 10.6157 39.2873L10.4434 39.5177C10.4315 39.5339 10.4167 39.548 10.3997 39.5593C10.3793 39.5726 10.3548 39.5787 10.3302 39.5765C10.3035 39.5747 10.2778 39.5663 10.2556 39.552L10.163 39.4907L10.0344 39.4123C9.97891 39.3832 9.92133 39.3578 9.86209 39.3363C9.78581 39.3103 9.70756 39.2898 9.62803 39.275C9.52709 39.2573 9.42457 39.2491 9.32195 39.2505C9.12631 39.2482 8.93215 39.2832 8.75093 39.3534C8.58192 39.4185 8.42937 39.5171 8.30338 39.6427C8.17512 39.7762 8.07629 39.9329 8.01273 40.1034C7.94029 40.2985 7.90458 40.5043 7.90727 40.7113C7.90418 40.9214 7.93988 41.1305 8.01273 41.3289C8.07549 41.498 8.1725 41.6537 8.29823 41.7872C8.41604 41.9117 8.56206 42.0089 8.72521 42.0715C8.89311 42.1379 9.07333 42.1712 9.25507 42.1696C9.36005 42.1711 9.465 42.1646 9.56887 42.15C9.73848 42.1302 9.90118 42.0741 10.0447 41.9858C10.1167 41.9405 10.1847 41.8897 10.2479 41.8338C10.2744 41.8098 10.3091 41.7958 10.3457 41.7946Z" fill="#AFB1B8"/>
<path d="M16.2871 40.7108C16.2903 40.9709 16.2432 41.2292 16.1482 41.473C16.0644 41.6941 15.9323 41.8958 15.7608 42.0648C15.5892 42.2338 15.382 42.3662 15.1528 42.4533C14.6492 42.6363 14.0925 42.6363 13.589 42.4533C13.3613 42.3648 13.1554 42.2321 12.9845 42.0636C12.8131 41.8916 12.68 41.6882 12.5936 41.4657C12.4083 40.972 12.4083 40.4325 12.5936 39.9388C12.6813 39.7162 12.8141 39.5122 12.9845 39.3384C13.1568 39.1752 13.3626 39.0476 13.589 38.9635C14.0919 38.7772 14.6499 38.7772 15.1528 38.9635C15.3813 39.0519 15.588 39.1846 15.7598 39.3531C15.9292 39.5235 16.0612 39.7243 16.1482 39.9437C16.2435 40.1892 16.2906 40.4492 16.2871 40.7108ZM15.747 40.7108C15.751 40.5028 15.718 40.2956 15.6492 40.0981C15.5916 39.929 15.4979 39.7729 15.374 39.6399C15.2534 39.5139 15.1049 39.4152 14.9393 39.3507C14.5734 39.2167 14.1684 39.2167 13.8024 39.3507C13.6368 39.4152 13.4884 39.5139 13.3678 39.6399C13.2422 39.7722 13.1475 39.9284 13.09 40.0981C12.9591 40.4971 12.9591 40.9246 13.09 41.3235C13.148 41.4931 13.2427 41.6492 13.3678 41.7818C13.4885 41.907 13.637 42.0049 13.8024 42.0685C14.169 42.1991 14.5728 42.1991 14.9393 42.0685C15.1048 42.0049 15.2533 41.907 15.374 41.7818C15.4974 41.6484 15.591 41.4925 15.6492 41.3235C15.7183 41.1261 15.7513 40.9189 15.747 40.7108Z" fill="#AFB1B8"/>
<path d="M20.3408 41.3532L20.3948 41.4904C20.4154 41.4414 20.4334 41.3973 20.4539 41.3532C20.4736 41.3071 20.4959 41.2621 20.5208 41.2184L21.8352 38.942C21.8609 38.9028 21.884 38.8783 21.9098 38.8709C21.9447 38.8608 21.9813 38.8566 22.0178 38.8587H22.4062V42.5613H21.9458V39.8388C21.9458 39.8045 21.9458 39.7653 21.9458 39.7237C21.9433 39.6812 21.9433 39.6387 21.9458 39.5962L20.6237 41.9046C20.6069 41.9391 20.58 41.9684 20.5463 41.9888C20.5125 42.0092 20.4733 42.02 20.4334 42.0197H20.3588C20.3187 42.0203 20.2794 42.0097 20.2456 41.9892C20.2118 41.9687 20.185 41.9393 20.1684 41.9046L18.8078 39.5815C18.8078 39.6256 18.8078 39.6698 18.8078 39.7139C18.8078 39.758 18.8078 39.7972 18.8078 39.8315V42.5539H18.3628V38.8587H18.7512C18.7877 38.8566 18.8243 38.8608 18.8592 38.8709C18.8911 38.886 18.9165 38.9111 18.9312 38.942L20.2739 41.2209C20.3003 41.263 20.3227 41.3073 20.3408 41.3532Z" fill="#AFB1B8"/>
<path d="M25.2869 41.1692V42.5562H24.7725V38.8585H25.9196C26.1362 38.8546 26.3521 38.8818 26.5601 38.9394C26.7266 38.9843 26.881 39.0629 27.0128 39.1697C27.127 39.2699 27.2151 39.394 27.27 39.5324C27.3307 39.6832 27.3604 39.8438 27.3575 40.0053C27.3597 40.1675 27.3274 40.3284 27.2623 40.4782C27.2005 40.6201 27.1054 40.7466 26.9845 40.8482C26.8525 40.9595 26.6974 41.043 26.5292 41.0933C26.329 41.1542 26.1195 41.1832 25.9093 41.179L25.2869 41.1692ZM25.2869 40.7723H25.9093C26.0446 40.7739 26.1792 40.7549 26.308 40.7159C26.4143 40.6818 26.5123 40.6277 26.5961 40.5566C26.6734 40.4888 26.7332 40.405 26.771 40.3116C26.8131 40.2128 26.8341 40.107 26.8327 40.0004C26.8387 39.8976 26.8211 39.7948 26.7811 39.6992C26.7412 39.6035 26.6798 39.5174 26.6013 39.4466C26.4047 39.3004 26.1579 39.2296 25.9093 39.2481H25.2869V40.7723Z" fill="#AFB1B8"/>
<path d="M32.2007 42.5612H31.7943C31.7536 42.5626 31.7135 42.5505 31.6812 42.5268C31.652 42.5038 31.6291 42.4744 31.6143 42.4411L31.2645 41.5466H29.5077L29.145 42.4411C29.1317 42.4738 29.1095 42.5025 29.0807 42.5244C29.048 42.5495 29.007 42.5625 28.965 42.5612H28.5586L30.1019 38.8582H30.6369L32.2007 42.5612ZM29.6543 41.1863H31.105L30.4928 39.6791C30.4461 39.5658 30.4074 39.4495 30.3771 39.3311L30.3179 39.5247C30.2999 39.5836 30.2794 39.6375 30.2614 39.6816L29.6543 41.1863Z" fill="#AFB1B8"/>
<path d="M34.4233 38.8754C34.4541 38.8915 34.4805 38.9141 34.5005 38.9416L36.7511 41.7329C36.7511 41.6887 36.7511 41.6446 36.7511 41.603C36.7511 41.5613 36.7511 41.5197 36.7511 41.4804V38.8582H37.2115V42.5612H36.9543C36.9178 42.5622 36.8816 42.5547 36.8489 42.5391C36.8171 42.5215 36.7892 42.4982 36.7666 42.4705L34.5185 39.6817C34.521 39.7241 34.521 39.7666 34.5185 39.8091C34.5185 39.8508 34.5185 39.8875 34.5185 39.9218V42.5612H34.0581V38.8582H34.3308C34.3626 38.8574 34.3942 38.8632 34.4233 38.8754Z" fill="#AFB1B8"/>
<path d="M41.0028 41.0884V42.5588H40.4883V41.0884L39.0659 38.8584H39.5263C39.566 38.8561 39.6052 38.8674 39.6369 38.8902C39.6649 38.914 39.6884 38.9422 39.7064 38.9735L40.5964 40.4121C40.6324 40.4733 40.6632 40.5297 40.689 40.5836C40.7147 40.6375 40.7353 40.689 40.7533 40.7405L40.8201 40.5812C40.8451 40.5229 40.8743 40.4664 40.9076 40.4121L41.7847 38.9637C41.8031 38.9348 41.8256 38.9084 41.8516 38.8853C41.8821 38.8599 41.9217 38.8467 41.9622 38.8486H42.4277L41.0028 41.0884Z" fill="#AFB1B8"/>
<path d="M20.0859 32.6443C20.3097 32.6712 20.5361 32.6933 20.765 32.7129C24.2356 31.2337 27.1716 28.8127 29.206 25.7526C31.2404 22.6924 32.283 19.1289 32.2033 15.5073L28.3785 11.8633C29.1562 15.7191 28.7925 19.705 27.3279 23.3751C25.8634 27.0452 23.3559 30.2546 20.0859 32.6443Z" fill="#AFB1B8"/>
<path d="M18.7202 32.4748L18.8231 32.4944C22.3173 30.1132 24.9814 26.788 26.4708 22.9488C27.9601 19.1097 28.2063 14.9331 27.1774 10.9592L21.7296 5.76904C23.9331 10.0353 24.82 14.8098 24.2873 19.5374C23.7546 24.265 21.824 28.7514 18.7202 32.4748Z" fill="#AFB1B8"/>
<path d="M37.1959 19.7861C36.2704 23.7654 34.0225 27.3541 30.7861 30.0196C29.841 30.8023 28.8214 31.4996 27.7407 32.1025C30.3761 31.3646 32.7983 30.0598 34.8207 28.289C36.8432 26.5181 38.4117 24.3284 39.4054 21.8887L37.1959 19.7861Z" fill="#AFB1B8"/>
<path d="M36.3292 19.2002L33.1835 16.2031C33.1233 19.6201 32.1037 22.9594 30.2306 25.8739C28.3575 28.7885 25.6993 31.1718 22.5322 32.7764H22.5477C23.2534 32.7761 23.9586 32.736 24.6594 32.6563C27.6192 31.5053 30.2339 29.6742 32.2702 27.3262C34.3064 24.9782 35.7009 22.1865 36.3292 19.2002Z" fill="#AFB1B8"/>
<path d="M19.1757 3.5803L15.4229 0C12.0681 1.23513 9.18278 3.40643 7.14464 6.22973C5.1065 9.05304 4.01047 12.3968 4 15.8234H4C4.01257 19.6097 5.3502 23.2838 7.80116 26.2643C10.2521 29.2448 13.6764 31.3614 17.5321 32.2791C20.974 28.2838 22.9892 23.347 23.2847 18.186C23.5803 13.025 22.1409 7.90862 19.1757 3.5803Z" fill="#AFB1B8"/>
<path d="M45.0002 18.649C44.9867 14.1568 43.1076 9.85223 39.7735 6.67574C36.4394 3.49924 31.9213 1.70898 27.2062 1.69605C25.0274 1.6939 22.8671 2.07696 20.835 2.82576L43.8119 24.7166C44.5987 22.7815 45.0016 20.7241 45.0002 18.649Z" fill="#AFB1B8"/>
</g>
<defs>
<filter id="filter0_d" x="0" y="0" width="49.0002" height="50.6016" filterUnits="userSpaceOnUse" color-interpolation-filters="sRGB">
<feFlood flood-opacity="0" result="BackgroundImageFix"/>
<feColorMatrix in="SourceAlpha" type="matrix" values="0 0 0 0 0 0 0 0 0 0 0 0 0 0 0 0 0 0 127 0"/>
<feOffset dy="4"/>
<feGaussianBlur stdDeviation="2"/>
<feColorMatrix type="matrix" values="0 0 0 0 0 0 0 0 0 0 0 0 0 0 0 0 0 0 0.25 0"/>
<feBlend mode="normal" in2="BackgroundImageFix" result="effect1_dropShadow"/>
<feBlend mode="normal" in="SourceGraphic" in2="effect1_dropShadow" result="shape"/>
</filter>
</defs>
</svg>
